<svg xmlns="http://www.w3.org/2000/svg" viewBox="0 0 94 94"><defs><style>.cls-1{fill:#212529;}.cls-2{fill:#fff;}</style></defs><g id="Capa_2" data-name="Capa 2"><g id="Capa_1-2" data-name="Capa 1"><circle class="cls-1" cx="47" cy="47" r="47"/><g id="Brand"><path id="Slash1" class="cls-2" d="M35.23,62.73l-.27.1a2.71,2.71,0,0,1-3.49-1.66L22.06,34.82a2.79,2.79,0,0,1,1.63-3.55l.27-.1a2.71,2.71,0,0,1,3.49,1.66l9.41,26.35A2.78,2.78,0,0,1,35.23,62.73Z"/><path id="Slash2" class="cls-2" d="M48.08,62.73l-.27.1a2.71,2.71,0,0,1-3.49-1.66L34.91,34.82a2.78,2.78,0,0,1,1.63-3.55l.27-.1a2.71,2.71,0,0,1,3.49,1.66l9.41,26.35A2.79,2.79,0,0,1,48.08,62.73Z"/><path id="D" class="cls-2" d="M63.38,31H51.74a2.91,2.91,0,0,0-2.92,2.4l-1.94,11a2.91,2.91,0,1,0,5.73,1l1.52-8.6h9.25a2.9,2.9,0,0,1,2.9,2.91V54.27a2.9,2.9,0,0,1-2.9,2.91H57.66a2.91,2.91,0,0,0-2.91,2.91h0A2.91,2.91,0,0,0,57.66,63h5.72a8.72,8.72,0,0,0,8.72-8.73V39.73A8.72,8.72,0,0,0,63.38,31Z"/></g></g></g></svg>